<?xml version="1.0" encoding="UTF-8" standalone="no"?>
<!-- Created with Inkscape (http://www.inkscape.org/) -->

<svg
   xmlns:svg="http://www.w3.org/2000/svg"
   xmlns="http://www.w3.org/2000/svg"
   version="1.0"
   width="680.70044"
   height="60.163372"
   id="svg2"
   xml:space="preserve"><defs
     id="defs104" /><g
     id="RiversDecorative"><g
       id="metadata7" /><g
       id="defs5" /><g
       id="base" /><g
       transform="translate(3.0999997e-8,5.2940729)"
       id="section5"
       style="opacity:0.5;display:inline" /><g
       transform="translate(3.0999997e-8,5.2940729)"
       id="section4"
       style="opacity:0.5"><g
         transform="matrix(0.090325,0,0,-0.090325,181.37816,53.22235)"
         id="g9354"><g
           id="g9356"><g
             transform="translate(88.5601,327.8569)"
             id="g9454"><path
               d="m 0,0 2.905,-0.581 2.906,0.29 2.033,0.291 2.324,-2.324 2.324,-1.453 2.034,-0.29 1.743,1.162 2.615,0.871 1.743,0 1.162,-1.452 2.615,-1.453 1.743,-0.581 1.453,-0.291 3.195,0.582 2.615,0.29 1.162,1.162 1.162,0 c 0,0 -0.291,0.581 0.871,0 1.163,-0.581 3.487,-0.871 3.487,-0.871 l 2.615,0.29 2.905,2.034 1.743,1.743 1.743,1.162 1.743,0.291"
               id="path9456"
               style="fill:none;stroke:#dc5050;stroke-width:0.5;stroke-linecap:butt;stroke-linejoin:round;stroke-miterlimit:4;stroke-opacity:1;stroke-dasharray:0.5, 0.5;stroke-dashoffset:0" /></g><g
             transform="translate(77.8105,331.0527)"
             id="g9450"><path
               d="m 0,0 2.615,-0.872 1.452,-1.162 2.325,-0.581 2.324,-0.581 2.034,0 1.067,0.133 1.257,0.158 2.033,0.871 4.068,0.581 1.161,0 2.615,0.581 1.453,1.453 2.615,1.162 2.324,0.581 2.033,0 L 33.12,2.033 35.444,0.872 38.059,0.581 40.092,0.291 42.125,0 44.74,0.581 46.483,1.162"
               id="path9452"
               style="fill:none;stroke:#dc5050;stroke-width:0.5;stroke-linecap:butt;stroke-linejoin:round;stroke-miterlimit:4;stroke-opacity:1;stroke-dasharray:0.5, 0.5;stroke-dashoffset:0" /></g></g></g></g><g
       transform="translate(3.0999997e-8,5.2940729)"
       id="section6"
       style="opacity:0.5;display:inline" /><g
       transform="translate(3.0999997e-8,5.2940729)"
       id="section7"
       style="opacity:0.5" /><g
       transform="translate(3.0999997e-8,5.2940729)"
       id="section8"
       style="opacity:0.5" /><g
       transform="translate(3.0999997e-8,5.2940729)"
       id="section10"
       style="opacity:0.5" /><g
       transform="translate(3.0999997e-8,5.2940729)"
       id="section11"
       style="opacity:0.5" /><g
       transform="translate(3.0999997e-8,5.2940729)"
       id="section9"
       style="opacity:0.5" /><g
       transform="translate(3.0999997e-8,5.2940729)"
       id="section2"
       style="opacity:0.5"><g
         transform="matrix(0.09200298,-0.00160592,-0.00160592,-0.09200298,56.612426,53.714298)"
         id="g1417"><g
           id="g1419"><g
             transform="translate(369.3335,299.167)"
             id="g1553"><path
               d="m 0,0 -0.5,-3.5 -2,-2.667 -3.333,-2.666 -2.167,-1.834 0.167,-1.666 0.333,-2.167 -0.333,-2.667 -1.834,-3 -3.5,-2.333"
               id="path1555"
               style="fill:none;stroke:#dc5050;stroke-width:0.5;stroke-linecap:butt;stroke-linejoin:round;stroke-miterlimit:4;stroke-opacity:1;stroke-dasharray:0.5, 0.5;stroke-dashoffset:0" /></g><g
             transform="translate(324.6665,342.667)"
             id="g10527"><path
               d="M 0,0 2.5,0.167 5.5,-0.667 7.333,-1.5 9,-1.833 l 2.167,0 2.833,1.333 3,0.833 3,0 2.833,-1 2,-0.666 3.334,1 4,2.333 3.5,1.167 2.833,0 4.333,-0.667 c 0,0 2.834,-0.167 3.5,0 0.667,0.167 3.5,1.5 3.5,1.5 L 51.5,5.167 55.333,6.833 59.167,7 62,6.5 l 2.833,-0.333 3,0 2.334,0.666 3.833,2 3,1.667 2.833,1 2.5,0.5 3.5,0.333 3.167,0 2,0 1.167,-0.166 3,1 1.833,1.5 2.333,1.666 3,0.667 2.667,-0.167 3.167,-0.666 2.666,0.333 3.667,1.833 2.667,1.334 1.333,1.166 1.333,0.667 3.5,0.167 1.834,0.333 2.5,1.333 2.333,2.167 2,2 -0.167,1.5 0.334,2 1.166,1.833 2,1.334 1.667,1.333 1.833,0.167 1.5,0.5 1.334,1.5 0.666,1.666 1.5,1.5 2.834,1.167 2.666,0.5 2.167,0"
               id="path1547"
               style="fill:none;stroke:#dc5050;stroke-width:0.5;stroke-linecap:butt;stroke-linejoin:round;stroke-miterlimit:4;stroke-opacity:1;stroke-dasharray:0.5, 0.5;stroke-dashoffset:0" /></g><g
             transform="translate(194.5,438.833)"
             id="g1525"><path
               d="M 0,0 0,-1.833 1.833,-2.667 5.5,-4.333 8.667,-6.5 l 1.666,-1.667 1,-2.666 L 11.167,-13"
               id="path1527"
               style="fill:none;stroke:#dc5050;stroke-width:0.5;stroke-linecap:butt;stroke-linejoin:round;stroke-miterlimit:4;stroke-opacity:1;stroke-dasharray:0.5, 0.5;stroke-dashoffset:0" /></g><g
             transform="translate(75.1665,351.6665)"
             id="g1529"><path
               d="M 0,0 2.167,1 4.5,0.667 6.667,-0.167 8.833,-0.5 l 2.5,0.667 3.167,2 2.5,2.666 3.167,2.167 3.5,1.5 3.666,0.167 2.5,0 4,-0.834 3,-1.666 2.5,-2.667 2.667,-1.667 3.333,-1 4.167,0 3.333,1.167 4,1 2.5,0 2.5,-0.5 2.834,-1.333 3.166,-1.167 2,-0.333 4.167,1 5.333,1.5 2.5,0.666 3.5,-0.5 1.5,-0.333 2.834,-1.167 2.833,-0.5 4.5,-0.166 5,1.666 4.167,1.334 1.5,0.333 1.833,0 2,-0.5 2.833,-1.167 2.5,-1.333 2.5,0.333 2.334,-0.333 1.833,-0.333 1.833,0.833 3,1.833 1.834,1.667 1.5,0.667 3.166,0 3,-0.334 3.334,-1.166 2.5,-1.167 2.333,-1 2.333,-0.667 2.5,-0.5 1.834,-0.333 2.833,0.5 4,0.667 4.167,1.166 3,0.334 2.5,-0.334 2.666,-1 3.167,-1.833 2.167,-1 1.5,-0.167 3.166,-0.166 2.834,0.166 L 187,-1 l 1.667,0.5 2.666,0 2.667,-0.667 2,-0.833 1.167,-0.833 1.833,-0.834 2.167,-0.5 1.833,-0.166"
               id="path1531"
               style="fill:none;stroke:#dc5050;stroke-width:0.5;stroke-linecap:butt;stroke-linejoin:round;stroke-miterlimit:4;stroke-opacity:1;stroke-dasharray:0.5, 0.5;stroke-dashoffset:0" /></g><g
             transform="translate(664.5,288.834)"
             id="g1569"><path
               d="M 0,0 0.5,-2.834 0.333,-5.5 -0.5,-8.334 -2,-10.667 l -3,-2.167 -3.333,-1 -2,-1 -1.834,-1.833 c 0,0 -0.999,-1.167 -1.166,-1.667 -0.167,-0.5 -1.167,-1.833 -1.167,-1.833 l 0,-1.833 0.167,-2.5"
               id="path1571"
               style="fill:none;stroke:#dc5050;stroke-width:0.5;stroke-linecap:butt;stroke-linejoin:round;stroke-miterlimit:4;stroke-opacity:1;stroke-dasharray:0.5, 0.5;stroke-dashoffset:0" /></g><g
             transform="translate(413,326.667)"
             id="g1549"><path
               d="m 0,0 3.833,0.167 3.5,-1 2.667,-0.334 2.667,0.667 3.666,2 3,1.333 3,0.334 L 25.167,2.5 27.5,1.5 31.833,1.833 36,3 l 2.167,1.5 3.166,1 2.834,-0.167 3.333,-1 L 51.333,3 54.5,2.833 57,3.667 l 4.167,1.666 3,0.667 2.166,0.333 2.5,-0.5 L 70.667,5.167 73,4.667 75.167,4.5 77.667,5 80,6.167 83.167,7.5 85.333,8 l 2.5,0.5 2.667,0 3,-0.167 2.167,-0.166 2.166,0.333 2.834,1.167 2.166,1.5 0.667,1.5"
               id="path1551"
               style="fill:none;stroke:#dc5050;stroke-width:0.5;stroke-linecap:butt;stroke-linejoin:round;stroke-miterlimit:4;stroke-opacity:1;stroke-dasharray:0.5, 0.5;stroke-dashoffset:0" /></g><g
             transform="translate(547.833,365.167)"
             id="g1561"><path
               d="m 0,0 1.667,-0.667 2.333,-1.5 1.5,-2.666 1.334,-2.834 1.5,-1.166 2.333,-0.667 3.667,-1.333 2.5,-1"
               id="path1563"
               style="fill:none;stroke:#dc5050;stroke-width:0.5;stroke-linecap:butt;stroke-linejoin:round;stroke-miterlimit:4;stroke-opacity:1;stroke-dasharray:0.5, 0.5;stroke-dashoffset:0" /></g><g
             transform="translate(135,407.1665)"
             id="g1521"><path
               d="M 0,0 -0.833,-1.833 -0.167,-4 1.167,-5.833 2.333,-6.5 l 1,-0.667 2.834,-1.5 L 8,-10.333"
               id="path1523"
               style="fill:none;stroke:#dc5050;stroke-width:0.5;stroke-linecap:butt;stroke-linejoin:round;stroke-miterlimit:4;stroke-opacity:1;stroke-dasharray:0.5, 0.5;stroke-dashoffset:0" /></g><g
             transform="translate(266.8335,287)"
             id="g1541"><path
               d="M 0,0 2.167,2 5.5,2.833 7.667,3.167 10.5,3 12.667,2.167"
               id="path1543"
               style="fill:none;stroke:#dc5050;stroke-width:0.5;stroke-linecap:butt;stroke-linejoin:round;stroke-miterlimit:4;stroke-opacity:1;stroke-dasharray:0.5, 0.5;stroke-dashoffset:0" /></g><g
             transform="translate(156.5,288)"
             id="g1537"><path
               d="M 0,0 2.167,-1.167 3.5,-3.333 5.833,-4 7.5,-4 l 3.167,0.5 1.833,1 3.833,1 3.167,-0.167 3.667,-1.166 2.833,-1.5 c 0,0 1.167,-1.334 1.5,-1.834 0.333,-0.5 2.333,-1.333 2.333,-1.333 l 4.5,-0.5 2.334,0.5 2.166,1.333 3.334,0.667 2.166,0.667 3,0 3,-1 L 52.5,-7 l 1.833,-1 1.5,0 2,0.5 2,0.667 2.334,0 1.833,-0.334 1.5,-0.5"
               id="path1539"
               style="fill:none;stroke:#dc5050;stroke-width:0.5;stroke-linecap:butt;stroke-linejoin:round;stroke-miterlimit:4;stroke-opacity:1;stroke-dasharray:0.5, 0.5;stroke-dashoffset:0" /></g><g
             transform="translate(542,339.5005)"
             id="g1557"><path
               d="m 0,0 2.667,-1.833 1.5,-2 0,-2.834 -1.334,-2.5 -0.333,-1 0.833,-1.5 1,-1.5 L 4,-16.5 2,-18.167 0.167,-19.5 l 0,-1.167 0.833,-1.5 -0.333,-2 -1.334,-1.333 -2,-0.667 -1.333,-0.5 -1.167,-1.166 -1.166,-1.167 0,-1.5"
               id="path1559"
               style="fill:none;stroke:#dc5050;stroke-width:0.5;stroke-linecap:butt;stroke-linejoin:round;stroke-miterlimit:4;stroke-opacity:1;stroke-dasharray:0.5, 0.5;stroke-dashoffset:0" /></g><g
             transform="translate(705.5,420.3335)"
             id="g1565"><path
               d="m 0,0 1.667,0.5 2.5,0.667 1.666,0 3,-1.167 2.834,-1.167"
               id="path1567"
               style="fill:none;stroke:#dc5050;stroke-width:0.5;stroke-linecap:butt;stroke-linejoin:round;stroke-miterlimit:4;stroke-opacity:1;stroke-dasharray:0.5, 0.5;stroke-dashoffset:0" /></g><g
             transform="translate(73.6665,305.1665)"
             id="g1533"><path
               d="m 0,0 4.167,1 3.166,0 2.834,-0.333 2.333,-1.5 2.333,-3 1.167,-1.834 2.833,-1.5 4.167,-0.166 5.833,1 3,0.833 2.167,0.167 3,-0.167 3.167,-1.833 2.5,-2.667 1.5,-2.667 2.833,-3 1.833,-1.5 3.834,-1"
               id="path1535"
               style="fill:none;stroke:#dc5050;stroke-width:0.5;stroke-linecap:butt;stroke-linejoin:round;stroke-miterlimit:4;stroke-opacity:1;stroke-dasharray:0.5, 0.5;stroke-dashoffset:0" /></g></g></g></g><g
       transform="translate(3.0999997e-8,5.2940729)"
       id="section3"
       style="opacity:0.5"><g
         transform="matrix(0.095837,0,0,-0.095837,117.46064,54.433993)"
         id="g6365"><g
           id="g6367"><g
             transform="translate(421.29,355.8457)"
             id="g6689"><path
               d="m 0,0 0.546,1.093 1.093,1.366 0,2.186 -0.542,1.481 -0.592,1.184 -0.443,1.183 0.295,1.774 0.591,1.331 0.592,1.774"
               id="path6691"
               style="fill:none;stroke:#dc5050;stroke-width:0.5;stroke-linecap:butt;stroke-linejoin:round;stroke-miterlimit:4;stroke-opacity:1;stroke-dasharray:0.5, 0.5;stroke-dashoffset:0" /></g><g
             transform="translate(584.1367,396.2842)"
             id="g6709"><path
               d="m 0,0 -1.366,-1.366 -2.459,-1.639 0,-1.64 0,-1.913 2.186,-1.366 1.093,-0.82 0,-2.732 c 0,-0.82 -0.001,-1.367 -0.547,-2.186 -0.546,-0.819 -1.366,-1.913 -1.366,-1.913 l -0.546,-1.912 1.366,-3.006 1.093,-0.82 0.819,-1.912 0,-1.64 -0.273,-1.366 -0.819,-0.82 -0.82,-1.639 -0.273,-2.732 0,-1.094 -2.185,-1.912 -1.092,0 -1.367,1.093 -1.092,0.819 -2.459,0.274 -1.094,-0.274 -1.366,-0.819 -1.093,0 -2.459,0.273 -1.64,1.366 -1.093,1.366 -1.639,1.913 -2.459,1.093 -3.279,-0.273 -1.093,0 -3.552,-0.82 -1.64,0 -1.912,0.547 -2.46,0.819 c 0,0 -1.093,0.547 -1.366,1.366 -0.273,0.82 -1.912,0.547 -1.912,0.547 l -1.64,-0.273 -0.819,-0.82 -1.366,0 -1.64,0 -3.279,0 -1.912,1.913 -2.187,0.273 -4.644,0.82 -1.093,-0.547 -3.825,-1.093 -2.187,0 -1.366,0.274 -3.006,1.092 -2.732,1.093 -2.732,1.64 -2.46,1.366 -2.732,0 -1.093,-0.546 -2.459,0 -1.366,0 -2.733,1.366 -1.913,0.819 -1.638,0.82 -3.28,-0.82 -3.005,-0.819 -4.645,0.273 -4.099,1.64 c 0,0 -3.279,2.732 -3.551,3.552 -0.273,0.82 -1.094,3.279 -1.094,3.279 0,0 -0.819,3.551 -1.093,4.371 -0.273,0.82 -0.819,2.46 -0.819,3.279 0,0.819 -2.733,2.186 -2.733,2.186 l -0.82,0.82 -1.639,0.546 -1.913,0.274 -1.366,-0.274"
               id="path6711"
               style="fill:none;stroke:#dc5050;stroke-width:0.5;stroke-linecap:butt;stroke-linejoin:round;stroke-miterlimit:4;stroke-opacity:1;stroke-dasharray:0.5, 0.5;stroke-dashoffset:0" /></g><g
             transform="translate(301.6152,386.9951)"
             id="g6673"><path
               d="m 0,0 1.093,0 1.639,-1.093 3.006,-1.366 1.093,0.273 2.459,0.82 2.186,0.82 1.639,0.273 2.733,0 1.366,-1.367 1.093,-2.185 c 0,0 0.546,-1.367 0.819,-2.46 0.274,-1.092 0.547,-2.185 1.367,-2.185 0.82,0 1.912,-0.274 1.912,-0.274 l 2.46,0 1.639,0.547 1.64,-0.273 2.732,-1.366 2.186,-3.28 1.093,-1.366 1.093,-3.279 1.366,-1.639 1.912,-1.093 c 0,0 2.46,-1.093 3.28,-1.366 0.819,-0.273 3.551,-0.547 3.551,-0.547 l 6.012,0.82 1.912,0.546 1.84,0.305 1.774,-0.148 1.847,-0.703 1.366,-0.273 1.64,-0.82 1.913,-0.273 3.551,1.639 3.006,2.186 1.64,0 2.459,0.82 2.186,0.546 2.185,0 2.733,-1.639 1.912,-0.82 2.46,-0.82 3.279,-0.819 3.279,0.819 3.005,2.186 3.006,1.64 2.733,0.273 2.731,0.82 4.646,0.273 3.006,-1.366 1.013,0.176 1.33,-0.444 1.208,-0.279 3.825,-0.273 1.914,0 4.098,2.186 4.099,3.006 2.459,2.186 2.459,0.546 2.459,0.274 3.279,-0.82 2.186,-1.094 1.639,-0.819 1.913,0 2.186,0.273 1.366,0.274 1.913,1.366 2.186,0.82 1.912,1.366 1.094,0.273 3.278,0 1.093,-0.82 1.913,-1.366 2.459,-0.82 3.006,-0.273 1.639,0.546 3.005,0.82 1.913,0.547"
               id="path6675"
               style="fill:none;stroke:#dc5050;stroke-width:0.5;stroke-linecap:butt;stroke-linejoin:round;stroke-miterlimit:4;stroke-opacity:1;stroke-dasharray:0.5, 0.5;stroke-dashoffset:0" /></g><g
             transform="translate(533.5898,370.5996)"
             id="g6701"><path
               d="m 0,0 -1.094,-1.639 0,-1.64 L 0,-5.465 0.819,-6.558 1.366,-8.197 c 0,0 0.274,-1.366 -0.273,-2.186 C 0.546,-11.203 0,-12.295 0,-12.295 l -2.187,-1.367 -2.185,-1.093 -1.093,-1.366 0.546,-1.093 1.64,-0.82 0.273,-2.186 c 0,0 -0.001,-0.819 -0.547,-1.639 -0.546,-0.82 -1.366,-1.366 -1.366,-1.366 l -0.273,-1.64 0.546,-1.366 0.82,-0.819 0,-0.82 c 0,-1.093 -0.82,-1.913 -1.093,-2.733 -0.273,-0.819 -1.64,-2.459 -1.64,-2.459 l -0.819,-1.366 -1.64,-1.913 -1.092,-0.273 -1.912,-0.273 c 0,0 -1.913,-0.273 -2.733,-1.093 -0.82,-0.82 -0.274,0.546 -0.82,-0.82 -0.546,-1.366 0.274,0 -0.546,-1.366 -0.82,-1.366 -0.547,-3.279 -0.547,-3.279 0,0 0.273,0.82 0.273,-0.82 l 0,-1.639 -1.366,-0.547"
               id="path6703"
               style="fill:none;stroke:#dc5050;stroke-width:0.5;stroke-linecap:butt;stroke-linejoin:round;stroke-miterlimit:4;stroke-opacity:1;stroke-dasharray:0.5, 0.5;stroke-dashoffset:0" /></g><g
             transform="translate(160.3525,359.9434)"
             id="g6557"><path
               d="m 0,0 1.64,-0.273 1.092,-0.82 1.64,-1.093 1.366,-0.82 1.639,-0.546 1.367,-0.547 1.913,-0.546 3.279,0.273 1.639,0.546 1.366,0.274 1.64,0.273 1.092,0 3.279,-0.547 2.186,0.547 1.093,0 1.64,0.82 1.092,0.819 0.82,1.094 1.093,0.819 1.093,0.82 0.82,0.546 1.639,0.82 0.82,1.366 0.273,1.64 -0.273,1.366 -0.546,1.639 0.819,1.366 1.093,0.82 1.093,0.82 0.82,1.093 0.82,1.093 0,2.732 -1.913,3.006 -1.093,1.366 -1.913,0.273"
               id="path6559"
               style="fill:none;stroke:#dc5050;stroke-width:0.5;stroke-linecap:butt;stroke-linejoin:round;stroke-miterlimit:4;stroke-opacity:1;stroke-dasharray:0.5, 0.5;stroke-dashoffset:0" /></g><g
             transform="translate(237.1318,319.5059)"
             id="g6669"><path
               d="m 0,0 -0.819,-1.093 -0.547,-1.639 1.093,-2.459 1.366,-2.186 c 0,0 0.82,-0.274 0.82,-1.367 0,-1.092 -0.547,-3.006 -0.547,-3.006 l -1.639,-3.552 -1.093,-2.185 -0.273,-3.552 1.366,-2.187 1.366,-1.092 1.093,-2.459 2.186,-2.459 0.546,-3.553 0,-3.552 -0.546,-3.006 -3.006,-2.459 -1.912,-1.366 -2.186,-0.273 -4.645,-0.546 -1.913,-0.547 -2.732,-1.093 -2.733,-1.093 -1.639,-0.82 -1.913,-1.639 -0.819,-1.639 0,-3.006 0.272,-1.093 0.82,-0.82 0,-1.912 -0.273,-1.913 -1.093,-2.733"
               id="path6671"
               style="fill:none;stroke:#dc5050;stroke-width:0.5;stroke-linecap:butt;stroke-linejoin:round;stroke-miterlimit:4;stroke-opacity:1;stroke-dasharray:0.5, 0.5;stroke-dashoffset:0" /></g><g
             transform="translate(415.585,337.8711)"
             id="g6725"><path
               d="m 0,0 0.147,1.183 0.149,0.591 0.887,0.74 0.886,0.739 0.888,1.035"
               id="path6727"
               style="fill:none;stroke:#dc5050;stroke-width:0.5;stroke-linecap:butt;stroke-linejoin:round;stroke-miterlimit:4;stroke-opacity:1;stroke-dasharray:0.5, 0.5;stroke-dashoffset:0" /></g><g
             transform="translate(247.5161,396.0107)"
             id="g6653"><path
               d="m 0,0 0,-1.913 0.819,-1.639 1.367,-0.547 1.366,-1.092 0.547,-0.82 -0.547,-2.186 0.273,-2.733 -2.186,-1.639 -1.366,-0.82 -3.005,-0.546 -2.186,-1.093 -1.367,-1.367 -0.273,-1.092 0.547,-1.913 0.273,-1.093 -0.82,-2.186 -1.366,-1.366 -1.093,0 -1.093,-1.913 0,-1.093 0.547,-2.459 0.272,-0.82 -1.092,-1.639 -0.82,-2.186 0.273,-2.732 1.093,-2.186 1.64,-0.82 1.093,-1.093 1.093,-0.82 0.819,-0.546 1.093,-1.093 0.82,-1.366"
               id="path6655"
               style="fill:none;stroke:#dc5050;stroke-width:0.5;stroke-linecap:butt;stroke-linejoin:round;stroke-miterlimit:4;stroke-opacity:1;stroke-dasharray:0.5, 0.5;stroke-dashoffset:0" /></g><g
             transform="translate(580.585,324.9688)"
             id="g6713"><path
               d="m 0,0 0,1.64 1.366,2.185 1.64,1.093 1.64,0.273 1.638,1.094 0.547,0.819 0,2.186 -0.273,1.093 0.273,1.913 1.912,1.366 1.913,0 1.366,0.273 2.459,0.547 2.187,-1.64 3.552,-0.82 2.459,0.274 1.366,0.546 1.093,0.274 2.459,0.273 1.093,0.546 1.093,0 1.093,-1.366 c 0,0 0.819,-0.273 1.366,-1.093 0.547,-0.82 1.913,-1.093 1.913,-1.093 l 2.186,0 c 0,0 1.638,0.82 2.459,0.82 l 4.918,0 1.366,-0.547 c 0,0 0.82,-1.093 1.913,-1.639 1.093,-0.546 2.732,-1.093 2.732,-1.093 l 3.006,-0.547 2.733,0.82 1.912,0.82 3.279,0 1.912,-0.273 c 0,0 1.367,0.547 1.367,-0.273 0,-0.82 2.732,-1.367 2.732,-1.367 l 1.913,0 1.366,0"
               id="path6715"
               style="fill:none;stroke:#dc5050;stroke-width:0.5;stroke-linecap:butt;stroke-linejoin:round;stroke-miterlimit:4;stroke-opacity:1;stroke-dasharray:0.5, 0.5;stroke-dashoffset:0" /></g><g
             transform="translate(537.9609,335.3521)"
             id="g6705"><path
               d="M 0,0 1.366,-1.913 1.913,-4.372 1.64,-6.285 c 0,0 -0.273,-0.273 -0.546,-1.092 -0.274,-0.82 -0.274,-0.82 -0.274,-1.64 0,-0.82 0.82,-1.913 0.82,-1.913"
               id="path6707"
               style="fill:none;stroke:#dc5050;stroke-width:0.5;stroke-linecap:butt;stroke-linejoin:round;stroke-miterlimit:4;stroke-opacity:1;stroke-dasharray:0.5, 0.5;stroke-dashoffset:0" /></g><g
             transform="translate(210.9019,320.0522)"
             id="g6661"><path
               d="m 0,0 0.273,-2.186 c 0,0 0.547,-0.547 0.547,-1.366 0,-0.82 -1.093,-4.645 -1.093,-4.645 l -1.913,-2.459 -1.093,-2.733 0,-3.552 0.547,-2.459"
               id="path6663"
               style="fill:none;stroke:#dc5050;stroke-width:0.5;stroke-linecap:butt;stroke-linejoin:round;stroke-miterlimit:4;stroke-opacity:1;stroke-dasharray:0.5, 0.5;stroke-dashoffset:0" /></g><g
             transform="translate(205.1641,287.5371)"
             id="g6665"><path
               d="m 0,0 -1.093,-1.64 0,-1.913 0.273,-3.278 -1.366,-3.006 -1.64,-1.64 -1.366,-1.639 -1.093,-2.459 0,-2.459 -0.273,-1.366 1.366,-1.367 0.547,-1.912 0,-1.913 -0.547,-1.639 -0.546,-0.82"
               id="path6667"
               style="fill:none;stroke:#dc5050;stroke-width:0.5;stroke-linecap:butt;stroke-linejoin:round;stroke-miterlimit:4;stroke-opacity:1;stroke-dasharray:0.5, 0.5;stroke-dashoffset:0" /></g><g
             transform="translate(651.9033,332.3462)"
             id="g6717"><path
               d="m 0,0 2.186,0.546 2.185,0.274 1.093,0 1.913,0 3.825,-1.913 1.913,-0.82 2.733,-0.546 2.732,0.546"
               id="path6719"
               style="fill:none;stroke:#dc5050;stroke-width:0.5;stroke-linecap:butt;stroke-linejoin:round;stroke-miterlimit:4;stroke-opacity:1;stroke-dasharray:0.5, 0.5;stroke-dashoffset:0" /></g><g
             transform="translate(198.606,378.5234)"
             id="g6621"><path
               d="m 0,0 1.64,-0.546 1.092,-0.82 1.914,-0.273 2.731,-0.274 3.006,1.367 2.733,1.639 1.366,1.366 1.366,1.093 0.82,1.366 1.093,0.82 1.093,0 1.913,1.093 1.092,1.64 1.64,2.185 1.639,1.366 1.366,0"
               id="path6623"
               style="fill:none;stroke:#dc5050;stroke-width:0.5;stroke-linecap:butt;stroke-linejoin:round;stroke-miterlimit:4;stroke-opacity:1;stroke-dasharray:0.5, 0.5;stroke-dashoffset:0" /></g><g
             transform="translate(454.8965,426.3403)"
             id="g6693"><path
               d="M 0,0 1.64,-2.732 0,-6.011 -1.366,-7.65 -2.732,-7.924"
               id="path6695"
               style="fill:none;stroke:#dc5050;stroke-width:0.5;stroke-linecap:butt;stroke-linejoin:round;stroke-miterlimit:4;stroke-opacity:1;stroke-dasharray:0.5, 0.5;stroke-dashoffset:0" /></g><g
             transform="translate(174.8345,323.6045)"
             id="g6657"><path
               d="m 0,0 -1.366,-0.82 0,-2.732 0.82,-1.639 -0.547,-2.186 -0.547,-1.094 -0.819,-1.092 -1.64,-1.093 -1.366,-2.186 -0.82,-2.733 -0.273,-2.459 0,-1.639 0,-2.732 0.273,-2.187 -0.819,-2.185 -2.459,-2.187 -1.64,-2.185 -1.366,-2.186 -0.273,-1.64 0.546,-2.459 0.546,-1.639 -0.272,-1.64 -0.547,-1.64 c 0,0 -0.819,-0.546 -1.366,-1.366 -0.547,-0.819 -1.64,-1.638 -1.64,-1.638 l -0.82,-2.187 0,-2.732 0.82,-1.093 0,-1.64 -1.366,-1.638 -0.273,-1.64"
               id="path6659"
               style="fill:none;stroke:#dc5050;stroke-width:0.5;stroke-linecap:butt;stroke-linejoin:round;stroke-miterlimit:4;stroke-opacity:1;stroke-dasharray:0.5, 0.5;stroke-dashoffset:0" /></g><g
             transform="translate(341.7813,365.4092)"
             id="g6677"><path
               d="m 0,0 -1.366,-0.82 -2.186,-0.819 -1.913,-1.366 -2.186,-2.186 -2.459,-2.186 -3.006,-1.367 -1.912,-0.546 -2.459,0 -1.093,0.82 -2.46,0.819 -1.639,-1.366 -0.82,-1.913 -0.819,-0.273 -2.459,0 c 0,0 -2.186,-1.366 -2.186,-2.186 0,-0.816 -0.272,-2.175 -0.274,-2.186 l 0.274,-0.82 0.273,-1.366 -0.82,-0.546 -1.639,-0.819 -1.64,-1.914 0,-1.366 0.547,-1.366 1.093,-1.366 c 0,0 0.546,-1.093 0,-1.913 -0.547,-0.819 -1.093,-1.366 -1.093,-1.366 l -2.459,-1.366 c 0,0 -0.82,0 -1.093,-0.82 -0.273,-0.819 -0.273,-1.913 -0.273,-1.913 l 0,-1.639"
               id="path6679"
               style="fill:none;stroke:#dc5050;stroke-width:0.5;stroke-linecap:butt;stroke-linejoin:round;stroke-miterlimit:4;stroke-opacity:1;stroke-dasharray:0.5, 0.5;stroke-dashoffset:0" /></g><g
             transform="translate(349.7051,364.043)"
             id="g6681"><path
               d="m 0,0 -1.366,-2.186 -0.273,-1.913 0.819,-1.912 0.547,-1.366 c 0,0 0.273,-1.367 0,-2.186 -0.273,-0.82 -0.273,-0.547 -0.82,-1.367 -0.546,-0.819 -3.279,-2.185 -3.279,-2.185 l -1.639,-0.547 -1.639,-1.913 -0.82,-2.732 0.273,-2.459 0.82,-1.64 1.093,-2.459 -1.093,-2.186"
               id="path6683"
               style="fill:none;stroke:#dc5050;stroke-width:0.5;stroke-linecap:butt;stroke-linejoin:round;stroke-miterlimit:4;stroke-opacity:1;stroke-dasharray:0.5, 0.5;stroke-dashoffset:0" /></g><g
             transform="translate(452.7109,409.1265)"
             id="g6697"><path
               d="M 0,0 2.186,-0.273 3.825,-0.82 5.465,-1.913"
               id="path6699"
               style="fill:none;stroke:#dc5050;stroke-width:0.5;stroke-linecap:butt;stroke-linejoin:round;stroke-miterlimit:4;stroke-opacity:1;stroke-dasharray:0.5, 0.5;stroke-dashoffset:0" /></g><g
             transform="translate(674.0352,330.707)"
             id="g6721"><path
               d="m 0,0 1.913,-0.82 1.639,-0.546 3.006,-1.093 c 0,0 0,-0.273 1.366,-0.273 1.366,0 4.372,1.366 4.372,1.366 l 1.64,0 1.366,-1.093 c 0,0 0.547,0 1.366,-0.273 0.819,-0.274 1.639,-0.274 1.639,-0.274 l 1.913,0 1.913,0.547 1.912,0.546 1.913,0.273 1.366,-0.546 0.546,-0.82 0.82,-1.366 2.733,-1.093 1.912,0 3.279,0 0.82,0 2.186,0.82 1.366,0 1.367,0 1.912,-0.547 c 0,0 1.366,0.547 1.639,-0.273 0.274,-0.82 1.64,-1.639 1.64,-1.639 l 1.366,-0.82 0.819,-0.547"
               id="path6723"
               style="fill:none;stroke:#dc5050;stroke-width:0.5;stroke-linecap:butt;stroke-linejoin:round;stroke-miterlimit:4;stroke-opacity:1;stroke-dasharray:0.5, 0.5;stroke-dashoffset:0" /></g><g
             transform="translate(344.7847,332.6206)"
             id="g6685"><path
               d="m 0,0 1.913,-0.82 1.092,-1.912 1.094,-2.186 2.186,-1.64 2.185,-0.273 4.645,0.82 1.366,0.82 1.914,0 1.912,0.273 4.099,-0.82 1.639,-1.913 4.372,-1.639 3.005,-1.366 3.826,0 1.913,0.819 2.185,0.274 2.46,0.273 2.185,-0.547 4.099,-2.732 c 0,0 0.547,0.273 1.913,-0.547 1.366,-0.819 4.918,-2.732 4.918,-2.732 l 1.093,0 4.372,0.547 1.093,1.366 1.366,1.093 3.279,0.82 2.459,0 1.639,-0.547 1.366,-0.82 3.28,-1.912 1.092,-1.366 c 0,0 1.092,-0.274 2.186,-0.274 l 2.459,0 1.64,0.274 3.005,1.639 2.459,0.82 2.733,0.819 1.913,0.82 c 0,0 1.64,-0.82 2.459,-0.82 0.819,0 3.006,-1.639 3.006,-1.639 l 1.638,-1.639 1.64,-0.547 1.366,0 2.733,0 1.913,1.093 1.64,1.093 1.912,1.093 2.185,0.546 1.64,0.82 1.913,0 2.459,-0.273 3.823,-0.547 2.46,0 1.912,-0.546 c 0,0 0.821,-0.273 1.64,-0.82 0.819,-0.546 1.912,-3.826 1.912,-3.826 l -0.273,-2.185 c 0,0 -0.547,-1.093 -1.093,-1.913 -0.546,-0.82 -2.733,-3.006 -2.733,-3.006 l -3.551,-2.186 -1.64,-1.912 c 0,0 -0.273,-0.547 -0.819,-1.639 -0.547,-1.093 -1.914,-3.28 -1.914,-3.28 l -1.638,-1.366 -1.366,-0.273 -2.187,-0.546 -3.552,-0.821 -1.913,-1.912 -2.185,-1.913 0,-1.638 0,-2.733 -1.093,-1.639 -0.82,-0.547 -1.639,-1.093 -2.187,-0.274 -1.912,-0.819"
               id="path6687"
               style="fill:none;stroke:#dc5050;stroke-width:0.5;stroke-linecap:butt;stroke-linejoin:round;stroke-miterlimit:4;stroke-opacity:1;stroke-dasharray:0.5, 0.5;stroke-dashoffset:0" /></g><g
             transform="translate(143.9585,358.8501)"
             id="g6553"><path
               d="m 0,0 1.093,-0.273 0.82,-0.273 1.366,0 1.366,0 1.366,0 1.913,-0.273 1.366,0.273"
               id="path6555"
               style="fill:none;stroke:#dc5050;stroke-width:0.5;stroke-linecap:butt;stroke-linejoin:round;stroke-miterlimit:4;stroke-opacity:1;stroke-dasharray:0.5, 0.5;stroke-dashoffset:0" /></g></g></g></g><g
       transform="matrix(0.086941,0,0,-0.086941,-1.4440031,57.058311)"
       id="section1"
       style="opacity:0.5"><g
         id="g1955"><g
           id="g1957"><g
             transform="translate(696.333,295.667)"
             id="g2023"><path
               d="m 0,0 2.167,-0.167 2.667,-1 1.833,-0.666 2.833,-0.334 2.167,0.334 3.167,1.666 2.333,1 2,0.334 2.167,0 1.5,-0.5 L 24,0.333 27,0.167 29.334,0.833 32.167,1.667 34.5,2.5 36.167,3.833 37,4.667"
               id="path2025"
               style="fill:none;stroke:#dc5050;stroke-width:0.5;stroke-linecap:butt;stroke-linejoin:round;stroke-miterlimit:4;stroke-opacity:1;stroke-dasharray:0.5, 0.5;stroke-dashoffset:0" /></g></g></g></g></g></svg>